HIERARCHY
ROOT Hips
{
	OFFSET 0.000000 88.474243 0.000000
	CHANNELS 6 Xposition Yposition Zposition Zrotation Yrotation Xrotation 
	JOINT Hips_Spine
	{
		OFFSET 0.000000 0.000000 0.000000
		CHANNELS 3 Zrotation Yrotation Xrotation
		JOINT Spine
		{
			OFFSET 0.005100 8.711998 -0.691000
			CHANNELS 3 Zrotation Yrotation Xrotation
			JOINT Spine1
			{
				OFFSET -0.009200 8.660301 -1.275000
				CHANNELS 3 Zrotation Yrotation Xrotation
				JOINT Spine2
				{
					OFFSET 0.006300 9.852501 -1.857000
					CHANNELS 3 Zrotation Yrotation Xrotation
					JOINT Spine2_Neck
					{
						OFFSET 0.000000 0.000000 0.000000
						CHANNELS 3 Zrotation Yrotation Xrotation
						JOINT Neck
						{
							OFFSET 0.016300 11.420799 -0.263300
							CHANNELS 3 Zrotation Yrotation Xrotation
							End Site #name: Head
							{
								OFFSET -0.019200 9.262405 2.362500
							}
						}
					}
					JOINT Spine2_LeftShoulder
					{
						OFFSET 0.000000 0.000000 0.000000
						CHANNELS 3 Zrotation Yrotation Xrotation
						JOINT LeftShoulder
						{
							OFFSET 5.616900 6.732201 -0.345700
							CHANNELS 3 Zrotation Yrotation Xrotation
							JOINT LeftArm
							{
								OFFSET 10.664888 -0.183372 -2.440700
								CHANNELS 3 Zrotation Yrotation Xrotation
								JOINT LeftForeArm
								{
									OFFSET 27.459126 0.000000 0.000000
									CHANNELS 3 Zrotation Yrotation Xrotation
									End Site #name: LeftHand
									{
										OFFSET 21.306858 0.000000 0.000000
									}
								}
							}
						}
					}
					JOINT Spine2_RightShoulder
					{
						OFFSET 0.000000 0.000000 0.000000
						CHANNELS 3 Zrotation Yrotation Xrotation
						JOINT RightShoulder
						{
							OFFSET -5.580300 6.737503 -0.344400
							CHANNELS 3 Zrotation Yrotation Xrotation
							JOINT RightArm
							{
								OFFSET -10.679335 -0.188484 -2.383900
								CHANNELS 3 Zrotation Yrotation Xrotation
								JOINT RightForeArm
								{
									OFFSET -27.503529 0.000000 0.000000
									CHANNELS 3 Zrotation Yrotation Xrotation
									End Site #name: RightHand
									{
										OFFSET -21.306808 0.000000 0.000000
									}
								}
							}
						}
					}
				}
			}
		}
	}
	JOINT Hips_LeftUpLeg
	{
		OFFSET 0.000000 0.000000 0.000000
		CHANNELS 3 Zrotation Yrotation Xrotation
		JOINT LeftUpLeg
		{
			OFFSET 6.857700 -6.739601 0.312100
			CHANNELS 3 Zrotation Yrotation Xrotation
			JOINT LeftLeg
			{
				OFFSET -0.367590 -34.731552 -4.572400
				CHANNELS 3 Zrotation Yrotation Xrotation
				End Site #name: LeftFoot
				{
					OFFSET 0.367590 -34.656704 -6.067400
				}
			}
		}
	}
	JOINT Hips_RightUpLeg
	{
		OFFSET 0.000000 0.000000 0.000000
		CHANNELS 3 Zrotation Yrotation Xrotation
		JOINT RightUpLeg
		{
			OFFSET -6.876100 -6.733299 0.301000
			CHANNELS 3 Zrotation Yrotation Xrotation
			JOINT RightLeg
			{
				OFFSET 0.347353 -34.795158 -4.515900
				CHANNELS 3 Zrotation Yrotation Xrotation
				End Site #name: RightFoot
				{
					OFFSET -0.347353 -34.589367 -6.070300
				}
			}
		}
	}
}
MOTION
Frames: 6
Frame Time: 0.041667
-1.691898 -1.344522 -2.240342 -10.411296 36.894061 -4.154752 0.000000 -0.000000 -0.000000 6.162690 2.042175 -1.288860 2.729272 -0.094516 3.730981 0.000000 0.000000 0.000000 3.352763 0.187307 4.504306 -2.134090 -15.646968 -3.357410 1.708717 0.218193 2.737846 -11.382305 -1.340898 -1.538101 -83.640485 -18.671621 -15.991494 -1.946853 24.541300 0.391204 2.893598 -0.398427 3.931488 13.730374 10.215750 7.475899 40.017600 18.029389 -42.851266 178.469387 69.757994 -177.203514 0.000000 -0.000000 -0.000000 0.733014 13.173907 -13.963633 -2.568009 -16.697216 -4.236053 0.000000 0.000000 0.000000 1.744152 -22.240396 -4.214091 5.877948 3.587716 5.246549 
-1.792668 -1.374443 -2.311299 -10.370236 36.848201 -4.194180 0.000000 -0.000000 -0.000000 6.134041 2.000319 -1.284385 2.763967 -0.091066 3.700715 0.000000 0.000000 0.000000 3.384557 0.182331 4.472518 -2.096945 -15.661047 -3.346698 1.734179 0.227349 2.695089 -11.355650 -1.309119 -1.577104 -83.754110 -18.752601 -15.968104 -1.947128 24.436075 0.388389 2.934222 -0.394885 3.915981 13.974092 10.171816 7.543700 40.739314 17.844343 -41.377615 178.571012 70.705746 -177.112128 0.000000 -0.000000 -0.000000 0.782909 13.207107 -13.993864 -2.566088 -16.711487 -4.059696 0.000000 0.000000 0.000000 1.791586 -22.452061 -4.200528 5.840998 3.560433 5.297956 
-1.893675 -1.403969 -2.382550 -10.319126 36.725963 -4.212127 0.000000 -0.000000 -0.000000 6.100071 1.954405 -1.279237 2.797449 -0.086125 3.673375 0.000000 0.000000 0.000000 3.416509 0.178293 4.446271 -2.063911 -15.669140 -3.345130 1.758881 0.238263 2.656577 -11.326510 -1.285139 -1.618547 -83.865656 -18.833277 -15.932087 -1.947804 24.332068 0.384338 2.973252 -0.387435 3.900587 14.223255 10.129130 7.607078 41.487209 17.652060 -39.887322 178.683317 71.583638 -177.010169 0.000000 -0.000000 -0.000000 0.830811 13.235648 -14.049397 -2.569017 -16.698483 -3.847000 0.000000 0.000000 0.000000 1.849617 -22.636418 -4.200266 5.794335 3.518772 5.356807 
-1.993827 -1.433157 -2.454300 -10.268199 36.554398 -4.218870 0.000000 -0.000000 -0.000000 6.059551 1.910725 -1.263795 2.830429 -0.080107 3.648617 0.000000 0.000000 0.000000 3.447301 0.175083 4.423783 -2.034647 -15.671708 -3.345366 1.781872 0.250706 2.619382 -11.305953 -1.262347 -1.661870 -83.980085 -18.897556 -15.917010 -1.950911 24.233296 0.379654 3.010578 -0.378740 3.887994 14.464121 10.098881 7.665824 42.230434 17.444533 -38.395839 178.809395 72.561725 -176.889594 0.000000 -0.000000 -0.000000 0.872071 13.266279 -14.130255 -2.573955 -16.669174 -3.614516 0.000000 0.000000 0.000000 1.914046 -22.798037 -4.211218 5.741425 3.468901 5.421294 
-2.092216 -1.462140 -2.526623 -10.209496 36.332272 -4.206892 0.000000 -0.000000 -0.000000 6.008789 1.856838 -1.248288 2.860096 -0.074779 3.625075 0.000000 0.000000 0.000000 3.477855 0.171400 4.404499 -2.014277 -15.658611 -3.356016 1.802658 0.264357 2.586689 -11.292616 -1.250633 -1.699907 -84.095844 -18.970322 -15.917572 -1.953882 24.147791 0.374731 3.046039 -0.370164 3.876466 14.695298 10.048372 7.728172 42.966664 17.190498 -36.900802 178.943070 73.388557 -176.761304 0.000000 -0.000000 -0.000000 0.911008 13.299732 -14.229189 -2.575546 -16.617672 -3.367308 0.000000 0.000000 0.000000 1.983540 -22.942146 -4.225483 5.679866 3.405199 5.472965 
-2.187624 -1.491141 -2.599666 -10.145911 36.070492 -4.182104 0.000000 -0.000000 -0.000000 5.948115 1.799345 -1.213563 2.890733 -0.070281 3.599160 0.000000 0.000000 0.000000 3.507921 0.166438 4.388534 -2.011536 -15.630367 -3.380026 1.822783 0.276870 2.552736 -11.280439 -1.258398 -1.738794 -84.202921 -19.048777 -15.956035 -1.958058 24.089670 0.368996 3.078051 -0.363349 3.865808 14.899149 10.033412 7.802629 43.662274 16.877965 -35.500334 179.077196 74.037837 -176.636537 0.000000 -0.000000 -0.000000 0.945559 13.334445 -14.340840 -2.573702 -16.546339 -3.108195 0.000000 0.000000 0.000000 2.057323 -23.047856 -4.243852 5.613153 3.335117 5.518945 
